<?xml version="1.0" encoding="utf-8"?>
<!-- Generator: Adobe Illustrator 25.2.0, SVG Export Plug-In . SVG Version: 6.00 Build 0)  -->
<svg version="1.1" id="_x32_" xmlns="http://www.w3.org/2000/svg" xmlns:xlink="http://www.w3.org/1999/xlink" x="0px" y="0px"
	 viewBox="0 0 512 512" style="enable-background:new 0 0 512 512;" xml:space="preserve">
<style type="text/css">
	.st0{fill:#048D6E;}
</style>
<g>
	<path class="st0" d="M114.8,112.4c21.5,0,38.9-17.4,38.9-38.9s-17.4-38.9-38.9-38.9S75.9,52,75.9,73.5
		C75.9,95,93.3,112.4,114.8,112.4z"/>
	<path class="st0" d="M245.8,197.8l62.8-30c8.5-3.6,12.4-13.3,8.9-21.8c-3.6-8.5-13.3-12.4-21.8-8.9l-56.5,19.3l-51.1-17.9
		c-9.8-3.4-20-5.3-30.3-5.5l-39.7-0.9c-42.2,0-79.8,14.1-89.1,60.9L0.4,312.3c-2,9,3.6,17.9,12.6,19.9s17.9-3.7,19.9-12.6L63,240.1
		l7.8,236.6c0,10.9,8.8,19.7,19.7,19.7s19.7-8.8,19.7-19.7l7.8-141.1l7.8,141.1c0,10.9,8.8,19.7,19.7,19.7s19.7-8.8,19.7-19.7
		l11.1-287.5l45.1,12.5C229.9,203.2,238.4,201.8,245.8,197.8z"/>
	<path class="st0" d="M227.2,37.2h253.4v206.3H227.2v-17.2c-3.3-0.1-6.6-0.3-9.9-0.9l-1.1-0.2l-10.7-3v43h296.7v-10.8V15.6H205.5
		v103.6l21.6,7.6L227.2,37.2L227.2,37.2z"/>
	<path class="st0" d="M233.7,358.7c0,21.5,17.4,38.9,38.9,38.9s38.9-17.4,38.9-38.9s-17.4-38.9-38.9-38.9
		C251.1,319.8,233.7,337.2,233.7,358.7z"/>
	<path class="st0" d="M272.6,417c-36.5,0-68.9,12.2-77,52.6l0.6,26.8H349l0.6-26.8C341.6,429.2,309.1,417,272.6,417z"/>
	<path class="st0" d="M396.1,358.7c0,21.5,17.4,38.9,38.9,38.9s38.9-17.4,38.9-38.9s-17.4-38.9-38.9-38.9
		C413.5,319.8,396.1,337.2,396.1,358.7z"/>
	<path class="st0" d="M435,417c-36.5,0-68.9,12.2-77,52.6l0.6,26.8h152.7l0.6-26.8C503.9,429.2,471.5,417,435,417z"/>
	<g>
		<g>
			<g>
				<path class="st0" d="M384.4,211.7v-35.1h-35.8v-8.7h35.8v-15.4h-35.8v-8.7h30.7l-41.4-65.4h17.6l28.7,48.7
					c3.3,6,5.1,10,7.8,15.8h0.7c2.7-5.1,5.3-10.4,8.5-16.3l30-48.1h17.6l-44.3,65.4h30.3v8.7h-35.6V168h35.6v8.7h-35.6v35.1h-14.8
					V211.7z"/>
			</g>
		</g>
	</g>
</g>
</svg>
